<svg xmlns="http://www.w3.org/2000/svg" viewBox="0 0 81.08 53.61"><defs><style>.cls-1{fill:#455c6b;}</style></defs><title>Asset 1</title><g id="Layer_2" data-name="Layer 2"><g id="OBJECTS"><path class="cls-1" d="M70.58,21.83c-1.33,3.05-1.15,6.09-.68,9.33.57,4,2.39,7.2,3.42,11l-.06.19a.41.41,0,0,0,.24.5.14.14,0,0,1,0,.06c-.1.89-.23,1.77-.36,2.61-2.45-2-5-3.95-7.7-5.78a21.93,21.93,0,0,0-1.22-5.9s0,0,0-.06c1-9.1-3.78-19-11.72-23.53a.49.49,0,0,0-.66.18c-1.58,3.77.36,8.13,1.81,11.63,2.24,5.39,6.15,9.39,9.73,13.9l1,3.05c-4.92-3.33-10-6.39-14.85-9.41a27,27,0,0,0-1.55-4,.33.33,0,0,0,.41-.41c-1.55-8.29-6.1-17.32-14.18-20.92a.5.5,0,0,0-.75.44A23.86,23.86,0,0,0,46.62,25.33l1.74,3.47c-4.44-2.8-9-5.53-13.64-7.95a21.81,21.81,0,0,0-4.07-6.2C27.84,8.4,24.15,1.88,17.12,0a.46.46,0,0,0-.56.45c-.1,6.41,8.21,14.32,14.29,15.94a42.22,42.22,0,0,1,2.68,3.82,96.65,96.65,0,0,0-9.72-4.3,33,33,0,0,0-5.13-4.29.4.4,0,0,0-.09-.35,34.58,34.58,0,0,0-8-6.93C8.42,3,6.1,1.21,3.38,1.23A.46.46,0,0,0,3,1.8c1.73,6,9.38,9.84,15.27,10.21h0a22,22,0,0,1,2.23,1.78c.47.44.88.93,1.3,1.4q-2.46-.84-5-1.5c-2-2.13-5.78-3.23-8.43-3.74C5.12,9.33,2,10.09.06,12.89a.39.39,0,0,0,.14.54c5,2.83,10.62,2.61,15.94.84l.64.3a.36.36,0,0,0,.45-.2q2.84.84,5.6,1.88a5.46,5.46,0,0,0,.71.53.36.36,0,0,0,.47-.06c.37.14.74.31,1.12.46-.73,0-1.46.14-2.11.23l-.92.13a.4.4,0,0,0-.23-.4c-3.54-1.42-6.88-.87-10.42.14C10,17.69,5,18.78,5,20.93c0,2.57,5.85,1.34,7.19,1.41,4.06.22,9.83.57,11.55-4a.19.19,0,0,0-.06-.21c.4,0,.81-.08,1.21-.1.78,0,1.54.07,2.3.05a115.15,115.15,0,0,1,11,5.56,13,13,0,0,0-3.48.76c-.33.1-.64.24-1,.36a.4.4,0,0,0-.35-.43c-5.05-.57-12.41,1.43-15.13,6a.48.48,0,0,0,.18.64c4.5,3.1,16.51.13,16.92-6.15a11.22,11.22,0,0,1,1.75-.3c1-.07,2,.2,3,.19q3.3,1.95,6.52,4l2.63,1.71,0,0a.24.24,0,0,0,.28.15l2.32,1.51a8.53,8.53,0,0,0-2.27.42.35.35,0,0,0-.1-.11c-3-1.59-7.86.18-10.73,1.3-3.35,1.3-6.79,3.46-8.44,6.76a.41.41,0,0,0,.25.6c3.46,1.17,7.58-.08,11-.89,3.93-.93,7.49-2.67,8.84-6.71a32.73,32.73,0,0,1,3.57,0c4.37,2.87,8.69,5.79,12.9,8.85a11.73,11.73,0,0,0-2.52-.07c-3.17-1.2-7.32-1.17-10.49-.89-3.84.35-7.43,2-9.26,5.49a.48.48,0,0,0,.18.65c6.41,3,17.23,2.4,21.16-4.43a11.1,11.1,0,0,1,2.89.7,148.38,148.38,0,0,1,11.8,9.69A.3.3,0,0,0,81,53.1,62.79,62.79,0,0,0,73.85,46,31.88,31.88,0,0,0,74.38,42c1.38-3.32,3-6.51,2.2-10.23s-2.84-6.94-5.2-10A.51.51,0,0,0,70.58,21.83ZM57,26.7c-2.15-3-3.38-6.86-4.34-10.39-.76-2.83-.82-5.81,2.63-3a21.06,21.06,0,0,1,4.92,6.28c2.15,3.81,2.79,8,3.24,12.24a85.05,85.05,0,0,0-5.33-10.23.25.25,0,0,0-.43.24,58.16,58.16,0,0,1,5.12,12.29C61,31.55,58.86,29.26,57,26.7ZM34.65,7.27c-.61-4.54,7,4.51,7.89,5.7,2.56,3.41,3.37,7.35,4.78,11.22-1.7-3.25-3.83-6.34-5.67-9.36a.28.28,0,0,0-.48.28c1.73,3,3.29,6,4.83,9C40.07,19.72,35.73,15.13,34.65,7.27ZM18.93,5.34a9.44,9.44,0,0,1-1.49-4.22c0-.3,5.24,2.91,5.81,3.45,2.23,2.11,3.66,4.87,5.08,7.59-1.5-1.56-3-3.08-4.33-4.64-.18-.22-.49.1-.31.32,2,2.55,4.28,5,6.34,7.51A29.54,29.54,0,0,1,18.93,5.34ZM4.75,4.11C3.14,1.87,5.83,2.76,7,3.35S9.07,4.63,10.1,5.29a38.93,38.93,0,0,1,5,3.82,8,8,0,0,0-2.84-1.35h0a.16.16,0,0,0-.09,0s0,0,0,0a.05.05,0,0,0,0,0,.1.1,0,0,0,0,.09h0c.79,1,2.6,1.68,3.6,2.33l1.19.79C12.31,9.93,7.58,8,4.75,4.11ZM7.86,14.83a13.83,13.83,0,0,1-5.55-1.18c-2.2-.91.11-2.22,1.3-2.69,3.62-1.43,6.93.3,10.07,2l-1.13-.23h0l-.44-.25s-.07,0,0,.06l.26.16-1.42-.26c-.21,0-.29.27-.08.32,1.49.3,3,.66,4.42,1.06l.1,0A66.78,66.78,0,0,1,7.86,14.83Zm4.3,6.75a34.27,34.27,0,0,0-3.51.07c-1.57.05-3.8-.59-1.59-1.85a25.19,25.19,0,0,1,6.34-2.13,17.77,17.77,0,0,1,3.9-.59,18.57,18.57,0,0,1,3.75.61c-1.66.23-3.31.47-5,.68-.16,0-.22.27,0,.3a17.64,17.64,0,0,0,5.42-.31c.6-.09,1.21-.17,1.81-.23C20.9,22.1,16.24,21.84,12.16,21.58Zm9.91,9.56c-.56,0-3.05-.34-2.69-.95,1-1.7,3-2.69,4.75-3.39,2.71-1.08,5.59-1,8.37-1.59-1.62.74-3.16,1.63-4.76,2.4-.23.11,0,.43.19.33,2-.89,3.93-1.9,6-2.69.28-.1.57-.18.85-.26C33.36,29.69,26.29,31.32,22.07,31.14Zm17.75,8.67a43.41,43.41,0,0,1-4.93.85c-.42.05-3.83.14-3.54-.33,1.8-2.91,5.41-4.66,8.49-5.84,2.64-1,5.18-1,7.82-1.21-1.87.82-3.64,1.88-4.86,2.51-.27.14,0,.54.23.41a38.71,38.71,0,0,1,5.43-2.32,9.26,9.26,0,0,1,1.19-.28C47.87,37.73,43.85,38.88,39.82,39.81ZM55,48.23A19.87,19.87,0,0,1,49,48a17.15,17.15,0,0,1-2.43-.67c-1.69-.57-.32-1.43.36-2.16,3.64-3.88,9.14-3.07,14.11-2.31a37.23,37.23,0,0,0-3.7,1.19.21.21,0,0,0,.11.4,44.36,44.36,0,0,1,5.91-1.25c.55.08,1.08.14,1.6.18A16.45,16.45,0,0,1,55,48.23ZM73.47,26.5a16.19,16.19,0,0,1,2.21,6.39c.3,2.27-.48,4.24-1.29,6.23A12.44,12.44,0,0,0,73,33.7c-.16-.28-.59,0-.44.26a13.28,13.28,0,0,1,1.18,7s0,0,0,0c-.63-2.09-1.59-4.08-2.23-6.19a24.05,24.05,0,0,1-.63-10.7C71.09,22.68,73.39,26.38,73.47,26.5Z"/></g></g></svg>